<svg width="202" height="213" viewBox="0 0 202 213" fill="none" xmlns="http://www.w3.org/2000/svg">
<path d="M89.1021 117.451C89.1021 116.702 89.2052 116.335 89.2162 116.298L89.7442 116.453C89.7373 116.477 89.1131 118.8 91.3034 124.246C93.326 129.276 98.2306 138.066 110.104 151.382C120.841 163.423 129.912 172.045 137.067 177.007C144.168 181.933 146.746 181.421 147.367 181.146L147.59 181.648C146.708 182.037 143.89 182.409 136.754 177.459C129.562 172.471 120.459 163.82 109.692 151.747C97.6957 138.292 92.765 129.409 90.7424 124.325C89.3716 120.881 89.1007 118.664 89.1007 117.451L89.1021 117.451Z" fill="#1AF012" stroke="#1AF012" stroke-width="0.5"/>
<path d="M102.892 102.336L102.925 101.788C103.188 101.803 109.721 102.421 142.335 126.479C158.09 138.1 165.618 144.66 169.16 148.118C172.919 151.788 173.171 152.872 173.183 153.052L172.634 153.089C172.634 153.089 172.634 153.095 172.636 153.107C172.604 152.937 171.514 148.687 142.008 126.921C125.177 114.505 115.457 108.488 110.268 105.628C104.588 102.498 102.908 102.337 102.891 102.336L102.892 102.336Z" fill="#1AF012" stroke="#1AF012" stroke-width="0.5"/>
<path d="M111.91 85.9642C111.993 85.8393 114.042 82.8859 120.996 82.0364C125.035 81.5424 129.916 81.8649 135.506 82.9957C142.473 84.4065 150.57 87.0841 159.573 90.9569C159.656 90.994 167.612 94.5581 175.515 99.8211C180.164 102.917 183.887 105.987 186.584 108.947C189.98 112.676 191.751 116.249 191.847 119.566L191.297 119.582C191.085 112.343 182.435 105.091 175.215 100.282C167.35 95.0439 159.432 91.4963 159.352 91.4606C139.141 82.7665 127.428 81.8265 121.162 82.5703C114.411 83.3704 112.387 86.2428 112.367 86.2716L111.911 85.9656L111.91 85.9642Z" fill="#1AF012" stroke="#1AF012" stroke-width="0.5"/>
<path d="M115.789 76.8837C115.789 76.8192 115.912 70.3855 122.025 64.7546C125.279 61.756 129.639 59.5053 134.984 58.0629C141.561 56.2884 149.678 55.7326 159.111 56.4119C159.214 56.4229 168.641 57.433 178.418 61.2935C184.171 63.5648 188.921 66.3644 192.537 69.6142C197.073 73.6916 199.826 78.4922 200.721 83.8829L200.178 83.9721C198.198 72.0351 187.143 65.3283 178.216 61.804C168.509 57.9709 159.156 56.9691 159.063 56.9595C141.977 55.7285 129.639 58.487 122.397 65.1581C116.457 70.6312 116.339 76.8275 116.339 76.8892L115.789 76.8851L115.789 76.8837Z" fill="#1AF012" stroke="#1AF012" stroke-width="0.5"/>
<path d="M43.502 205.917L43.7509 205.427C74.622 221.054 127.848 206.758 169.844 149.199C191.1 120.065 197.26 94.6632 198.683 78.4842C200.226 60.9561 196.696 50.1775 196.66 50.0704C194.763 43.6847 189.539 38.2679 181.952 34.8081C174.898 31.5913 166.504 30.385 158.921 31.4966C135.152 34.9824 125.153 44.9542 120.951 52.7054C116.401 61.0975 117.472 68.7732 117.483 68.8501L116.939 68.931C116.923 68.8267 116.562 66.3208 117.108 62.5563C117.61 59.087 119.016 53.8664 122.862 48.6953C125.974 44.5109 130.225 40.9496 135.497 38.1073C141.805 34.7066 149.659 32.2994 158.84 30.9531C166.525 29.8264 175.032 31.0492 182.179 34.3086C189.913 37.8356 195.241 43.3746 197.183 49.9057C197.216 50.0045 200.777 60.8669 199.232 78.4993C198.324 88.8457 195.863 99.472 191.917 110.082C186.986 123.339 179.708 136.61 170.285 149.524C160.344 163.148 149.339 174.911 137.572 184.484C126.584 193.423 115.103 200.331 103.444 205.018C92.347 209.478 81.4447 211.797 71.0388 211.907C60.8282 212.016 51.5622 210.001 43.4992 205.919L43.502 205.917Z" fill="#1AF012" stroke="#1AF012" stroke-width="0.5"/>
<path d="M16.2636 185.464L16.6857 185.112C27.2649 197.769 40.6531 204.849 56.4778 206.155C80.1303 208.108 109.198 196.441 134.232 174.946C166.624 147.133 187.873 110.558 194.066 71.9581C196.916 54.1899 192.424 40.9135 188.153 32.9056C183.524 24.2239 178.149 19.6855 178.095 19.6402C169.297 12.1854 158.811 12.2129 151.562 13.5496C143.69 15.0015 137.838 18.2596 137.781 18.2925C120.182 28.5977 115.594 41.7657 114.845 50.9991C114.032 61.0148 117.43 68.6987 117.464 68.7742L116.962 68.9993C116.928 68.9224 113.476 61.13 114.295 50.9785C114.774 45.0141 116.61 39.4107 119.751 34.3233C123.671 27.9733 129.645 22.4193 137.506 17.8163C137.569 17.7806 143.501 14.4773 151.462 13.0102C156.144 12.147 160.604 12.077 164.719 12.8002C169.872 13.706 174.49 15.8661 178.449 19.2202C178.501 19.2642 183.946 23.8561 188.626 32.6243C191.374 37.7707 193.329 43.3316 194.437 49.1533C195.822 56.4269 195.879 64.1287 194.609 72.0446C191.677 90.3137 185.398 108.185 175.942 125.161C165.533 143.849 151.621 160.739 134.591 175.362C122.943 185.362 109.995 193.542 97.1458 199.015C82.7277 205.156 69.0301 207.742 56.4324 206.701C40.4551 205.382 26.9404 198.236 16.2636 185.462L16.2636 185.464Z" fill="#1AF012" stroke="#1AF012" stroke-width="0.5"/>
<path d="M106.537 44.7998C106.537 39.4626 107.634 34.0088 109.804 28.5646C112.37 22.1267 115.754 16.7456 119.862 12.5681C123.152 9.22221 126.912 6.63801 131.035 4.8896C138.061 1.90878 143.801 2.39598 143.857 2.4001L143.806 2.9463C143.75 2.94081 138.126 2.46871 131.222 5.40561C124.852 8.11469 116.055 14.3673 110.314 28.7663C105.051 41.97 107.236 52.7075 109.994 59.3924C112.987 66.644 117.284 70.8257 117.327 70.8669L116.946 71.2621C116.902 71.2196 112.535 66.9734 109.495 59.6243C107.71 55.3082 106.723 50.7779 106.56 46.1612C106.544 45.7084 106.537 45.2541 106.537 44.7998Z" fill="#1AF012" stroke="#1AF012" stroke-width="0.5"/>
<path d="M96.2526 37.3788C96.2526 31.4034 97.1354 25.9482 98.883 21.1366C100.423 16.896 102.635 13.1439 105.455 9.98466C110.265 4.59943 115.262 2.77965 115.311 2.76318L115.496 3.28057C115.447 3.29841 110.562 5.08251 105.845 10.3744C101.491 15.2587 96.397 24.2204 96.8287 39.1725C97.2357 53.1708 102.572 61.8387 106.978 66.6448C111.743 71.8434 116.455 73.7579 116.503 73.7771L116.3 74.2863C116.252 74.267 111.421 72.3045 106.573 67.0154C103.728 63.9124 101.428 60.2838 99.7368 56.2339C97.6249 51.1767 96.4616 45.4415 96.2801 39.1889C96.2623 38.581 96.254 37.9785 96.254 37.3815L96.2526 37.3788Z" fill="#1AF012" stroke="#1AF012" stroke-width="0.5"/>
<path d="M82.5637 31.1732C82.5637 28.1128 82.9322 25.1937 83.6678 22.453C85.498 15.6378 89.0757 11.8761 90.1839 11.0952L90.5002 11.544C89.6312 12.1547 86.0163 15.8217 84.1986 22.5958C81.8639 31.2912 83.3516 41.8311 88.5023 53.0764C94.9111 67.0706 102.079 72.7728 106.964 75.0921C112.218 77.5858 115.99 76.8008 116.027 76.7925L116.145 77.3291C115.984 77.3648 112.151 78.1622 106.728 75.5876C103.56 74.0834 100.509 71.7312 97.6597 68.5953C94.1081 64.6881 90.859 59.543 88.0018 53.3042C85.1267 47.0255 83.3722 40.9912 82.7851 35.3672C82.6366 33.9426 82.5624 32.5442 82.5624 31.1732L82.5637 31.1732Z" fill="#1AF012" stroke="#1AF012" stroke-width="0.5"/>
<path d="M66.7786 31.5664C66.7786 28.2219 67.616 25.6679 69.2852 24.1528L69.6551 24.5591C68.1894 25.8889 67.3877 28.2014 67.3369 31.2439C67.2887 34.2426 67.9611 37.9576 69.2866 41.9952C72.1232 50.6371 77.7015 60.1724 84.5888 68.1555C92.1292 76.8948 97.7832 80.2627 101.2 81.5472C104.878 82.9319 106.806 82.2581 106.825 82.2512L107.018 82.7659C106.934 82.7975 104.93 83.518 101.089 82.0921C97.6003 80.7979 91.8336 77.3916 84.1722 68.5137C77.2381 60.477 71.6227 50.8745 68.7641 42.1667C67.4386 38.1292 66.7786 34.5363 66.7772 31.5678L66.7786 31.5664Z" fill="#1AF012" stroke="#1AF012" stroke-width="0.5"/>
<path d="M48.6778 42.5692C48.6778 41.8638 48.8979 41.5838 48.9474 41.5303L49.353 41.9008C49.331 41.9296 46.6717 45.985 67.2539 67.1897C79.0802 79.3737 86.2521 85.0993 90.1859 87.7576C94.4951 90.6684 95.9939 90.6561 96.009 90.6561L96.042 91.2036C95.8027 91.2201 89.9247 91.334 66.8593 67.5712C58.1281 58.5766 52.2528 51.2687 49.8672 46.4379C48.9226 44.5234 48.6778 43.3103 48.6778 42.5692Z" fill="#1AF012" stroke="#1AF012" stroke-width="0.5"/>
<path d="M31.9284 60.9147L32.1277 60.4028C35.6326 61.7629 37.2317 62.3845 58.2923 77.6715C78.4716 92.319 86.5951 101.309 86.6748 101.399L86.2651 101.764C86.1853 101.674 78.0935 92.7224 57.9692 78.1148C36.9663 62.869 35.3878 62.2555 31.9284 60.9134L31.9284 60.9147Z" fill="#1AF012" stroke="#1AF012" stroke-width="0.5"/>
<path d="M18.1823 82.5188C18.2346 82.4406 19.5133 80.6195 24.2364 80.5769C30.3413 80.522 39.5317 83.5056 50.8121 89.2051C66.4292 97.0963 73.322 103.309 76.3566 107.131C79.7033 111.348 79.2743 113.687 79.2551 113.784L78.7161 113.677C78.7202 113.655 79.0942 111.417 75.8382 107.363C72.8188 103.603 65.9823 97.486 50.5646 89.695C36.5219 82.5984 28.5717 81.1176 24.3766 81.1245C19.8735 81.1327 18.6512 82.8098 18.6388 82.8262L18.1837 82.5188L18.1823 82.5188Z" fill="#1AF012" stroke="#1AF012" stroke-width="0.5"/>
<path d="M7.90283 105.332C8.00321 105.192 10.4218 101.884 16.3727 99.6211C19.8528 98.2968 23.8238 97.6133 28.1756 97.59C33.6013 97.5598 39.6403 98.5617 46.1233 100.565C52.9061 102.662 58.6439 105.219 63.1759 108.166C66.8127 110.53 69.6892 113.15 71.7228 115.952C75.2098 120.757 75.0186 124.394 75.009 124.546L74.4604 124.512C74.4632 124.476 74.6405 120.883 71.2443 116.228C68.097 111.915 61.156 105.787 45.9611 101.09C31.4426 96.6005 21.9868 98.0841 16.612 100.119C10.7986 102.319 8.37583 105.62 8.35245 105.653L7.90559 105.333L7.90283 105.332Z" fill="#1AF012" stroke="#1AF012" stroke-width="0.5"/>
<path d="M1.56737 130.075C1.61274 129.901 2.72646 125.741 7.11954 121.304C9.69352 118.705 12.8656 116.557 16.5465 114.924C21.1375 112.886 26.5371 111.644 32.5967 111.234C39.6462 110.756 46.1142 111.386 51.8203 113.106C56.3922 114.484 60.4883 116.56 63.9945 119.277C69.9729 123.91 72.1963 128.884 72.2183 128.935L71.7136 129.154C71.6916 129.106 69.5109 124.24 63.6301 119.69C58.2017 115.492 48.4186 110.711 32.6324 111.781C19.0888 112.699 11.5085 117.663 7.5348 121.665C3.23246 125.999 2.10911 130.171 2.09811 130.214L1.56599 130.077L1.56737 130.075Z" fill="#1AF012" stroke="#1AF012" stroke-width="0.5"/>
<path d="M2.88902 154.604C2.88902 151.224 3.58751 147.915 4.97762 144.727C6.5066 141.222 8.86882 137.854 12.0024 134.721C17.3264 129.393 23.1192 126.54 23.1769 126.513C30.0367 123.233 36.7219 121.373 43.0469 120.983C48.1151 120.672 52.9646 121.298 57.4608 122.846C65.125 125.484 69.1647 129.956 69.2046 130.001L68.7935 130.366C68.755 130.323 64.7895 125.942 57.2505 123.355C50.293 120.967 38.7734 119.663 23.4148 127.007C23.3598 127.034 17.6385 129.853 12.3792 135.12C8.13733 139.368 3.44176 146.021 3.44176 154.647C3.44176 155.852 3.53389 157.094 3.73051 158.374L3.18738 158.458C2.98801 157.166 2.88902 155.88 2.88902 154.607L2.88902 154.604Z" fill="#1AF012" stroke="#1AF012" stroke-width="0.5"/>
<path d="M11.9544 169.293C11.9544 165.294 12.6763 161.222 14.1049 157.179C16.6665 149.927 20.6746 145.212 20.7145 145.165C26.0027 138.892 31.6993 134.215 37.6419 131.266C42.4049 128.903 47.3356 127.637 52.2979 127.505C60.7541 127.28 66.452 130.482 66.5098 130.514L66.2361 130.99C66.1811 130.958 60.5918 127.825 52.2814 128.054C44.6117 128.266 32.9821 131.468 21.1339 145.519C21.0926 145.567 17.1423 150.218 14.6178 157.379C12.2927 163.972 10.7335 174.106 16.5125 184.951L16.0272 185.209C13.4326 180.339 12.0645 175.203 11.9613 169.942C11.9572 169.725 11.9544 169.509 11.9544 169.292L11.9544 169.293Z" fill="#1AF012" stroke="#1AF012" stroke-width="0.5"/>
<path d="M28.0789 173.964C28.0789 167.975 29.1047 163.706 29.117 163.651C31.2538 155.226 34.5139 148.247 38.8107 142.904C42.255 138.621 46.3662 135.375 51.0329 133.258C58.9831 129.648 65.8883 130.586 65.957 130.595L65.8787 131.139C65.8113 131.129 59.0395 130.217 51.2323 133.77C44.0274 137.05 34.4341 144.919 29.6505 163.784C29.634 163.85 27.9841 170.729 28.9094 179.27C29.7605 187.131 33.0316 198.052 43.7813 205.444L43.4691 205.895C38.6429 202.577 34.8851 198.288 32.3001 193.149C30.2335 189.041 28.908 184.385 28.3608 179.309C28.1587 177.431 28.0789 175.63 28.0789 173.963L28.0789 173.964Z" fill="#1AF012" stroke="#1AF012" stroke-width="0.5"/>
<path d="M48.9929 161.682C48.9929 158.754 49.2197 155.973 49.6762 153.353C50.6043 148.018 52.4743 143.33 55.2353 139.421C59.946 132.754 65.7086 130.638 65.7663 130.617L65.9519 131.135C65.8956 131.155 60.2733 133.226 55.6643 139.767C51.406 145.811 47.1655 157.019 51.1475 176.094L51.1502 176.109C51.1612 176.182 52.3107 183.513 56.3683 191.426C60.1014 198.708 67.1331 207.991 79.4351 210.86L79.3099 211.394C73.7825 210.104 68.8325 207.447 64.5976 203.498C61.2151 200.342 58.2781 196.36 55.8719 191.661C51.8391 183.789 50.6538 176.485 50.6085 176.198C49.5332 171.042 48.9942 166.188 48.9942 161.681L48.9929 161.682Z" fill="#1AF012" stroke="#1AF012" stroke-width="0.5"/>
<path d="M70.884 141.355C70.884 139.125 71.0902 137.027 71.5 135.074C72.8227 128.791 75.779 126.242 75.9041 126.137L76.2588 126.555C76.2299 126.58 73.3012 129.119 72.0266 135.241C70.8469 140.91 70.884 150.892 77.7617 166.249C85.1316 182.705 93.5974 191.289 99.4012 195.593C106.205 200.638 112.099 201.983 115.079 201.603L115.149 202.147C112.068 202.541 106.008 201.176 99.0726 196.034C95.213 193.172 91.5212 189.468 88.0988 185.026C84.0866 179.816 80.4388 173.574 77.2584 166.474C74.1908 159.624 72.2054 153.248 71.3584 147.523C71.0408 145.375 70.8812 143.315 70.8812 141.355L70.884 141.355Z" fill="#1AF012" stroke="#1AF012" stroke-width="0.5"/>
<path d="M73.5246 128.176C73.5397 128.091 75.0934 119.6 81.0719 109.139C84.5822 102.998 88.9107 97.3849 93.9349 92.4553C100.216 86.2946 107.609 81.1921 115.91 77.2891L116.145 77.7859C97.4851 86.5595 87.0379 99.8153 81.5614 109.392C75.6228 119.774 74.0814 128.189 74.0663 128.273L73.5246 128.177L73.5246 128.176Z" fill="#1AF012" stroke="#1AF012" stroke-width="0.5"/>
<path d="M73.1187 128.245C73.1283 128.152 74.1884 118.783 79.9826 107.834C83.3857 101.403 87.7334 95.6898 92.9034 90.8508C99.3658 84.8027 107.139 80.1146 116.006 76.917L116.193 77.433C96.2844 84.6147 85.7837 98.0572 80.4804 108.07C74.7288 118.928 73.6756 128.211 73.6659 128.303L73.1187 128.244L73.1187 128.245Z" fill="#1AF012" stroke="#1AF012" stroke-width="0.5"/>
<path d="M70.049 125.164C70.049 123.795 70.1452 122.131 70.4326 120.197C71.226 114.839 73.7037 106.342 80.998 96.2847C84.7476 91.1149 88.9385 86.7302 93.454 83.2512C97.0688 80.4653 100.9 78.2502 104.839 76.6693C111.558 73.9712 116.342 74.0535 116.39 74.0535L116.378 74.6024C116.331 74.6024 111.637 74.5256 105.015 77.1908C98.9031 79.6501 89.8529 85.0161 81.4449 96.6072C74.2276 106.557 71.7718 114.952 70.9826 120.241C70.1287 125.969 70.9908 129.391 70.9991 129.425L70.467 129.564C70.4422 129.469 70.0504 127.921 70.0504 125.165L70.049 125.164Z" fill="#1AF012" stroke="#1AF012" stroke-width="0.5"/>
<path d="M63.9652 118.397C63.9652 118.001 63.9735 117.6 63.9913 117.197C64.166 113.197 65.2041 108.874 67.0782 104.348C70.2627 96.6561 74.8249 90.9566 74.8702 90.8989C80.1378 84.2031 85.6405 78.9839 91.2202 75.3883C95.6958 72.5049 100.232 70.6522 104.705 69.8823C112.344 68.5675 117.075 70.8374 117.273 70.9349L117.03 71.4276C116.983 71.4042 112.23 69.1329 104.756 70.4312C97.8421 71.632 87.1214 76.2172 75.3006 91.2406C75.2539 91.2996 70.7343 96.9484 67.5814 104.569C64.6857 111.571 62.3826 121.724 67.8606 130.327L67.3958 130.621C65.1161 127.042 63.9652 122.933 63.9638 118.396L63.9652 118.397Z" fill="#1AF012" stroke="#1AF012" stroke-width="0.5"/>
<path d="M55.0595 113.079C55.0595 109.064 55.8267 104.751 57.3475 100.416C60.4054 91.6901 66.4774 82.985 74.9061 75.2407C80.9931 69.6482 86.8464 65.6848 92.3037 63.4588C96.8151 61.6198 101.094 60.9473 105.022 61.462C113.392 62.5571 117.414 68.7356 117.454 68.7974L116.989 69.0924C116.95 69.032 113.054 63.0622 104.938 62.0054C96.3283 60.8842 86.3501 65.4734 75.2787 75.6455C66.916 83.3281 60.8963 91.9563 57.8672 100.597C55.3345 107.822 54.9179 114.973 56.6944 120.728C58.3333 126.041 61.7103 129.565 65.7266 130.157L65.6469 130.7C61.4147 130.077 57.8714 126.41 56.1691 120.89C55.4294 118.491 55.0609 115.856 55.0609 113.079L55.0595 113.079Z" fill="#1AF012" stroke="#1AF012" stroke-width="0.5"/>
<path d="M44.4828 112.869C44.4828 110.834 44.6753 108.668 45.0617 106.382C46.5962 97.2939 51.2037 86.7774 57.7033 77.5289C62.3315 70.9428 69.2779 64.3101 76.7606 59.3325C84.9033 53.9157 93.0487 50.8813 99.694 50.7894C105.726 50.7057 110.475 52.933 113.811 57.4084C117.655 62.5685 118.527 69.2177 116.401 77.1707C114.459 84.4402 109.994 92.8694 103.134 102.225C94.1968 114.413 78.742 129.365 64.6016 131.391C59.3162 132.148 54.6536 131.015 50.7417 128.023C47.9725 125.905 46.0957 122.868 45.1634 118.995C44.7111 117.121 44.4856 115.073 44.4856 112.872L44.4828 112.869ZM58.1529 77.8431C51.6987 87.0271 47.1242 97.4627 45.6034 106.472C43.9713 116.141 45.9142 123.638 51.0731 127.585C54.8626 130.484 59.3863 131.582 64.5205 130.846C78.4917 128.845 93.8132 114.003 102.687 101.9C109.507 92.6004 113.942 84.2316 115.867 77.0293C117.947 69.2465 117.105 62.7552 113.367 57.7364C110.143 53.4093 105.545 51.2574 99.6995 51.3383C93.1587 51.4289 85.1205 54.4303 77.0645 59.7895C69.6368 64.73 62.744 71.312 58.1529 77.8445L58.1529 77.8431Z" fill="#1AF012" stroke="#1AF012" stroke-width="0.5"/>
<path d="M32.5698 112.643C32.5698 109.393 33.0249 105.885 33.9365 102.122C36.8171 90.2373 43.5325 78.7065 48.6598 71.1269C53.3802 64.1483 61.1296 56.4657 69.3878 50.5768C76.1362 45.7652 86.3358 39.8805 96.6111 39.1751C104.046 38.6645 110.151 41.0045 114.758 46.1317C119.231 51.1079 120.202 60.1286 117.493 71.5303C115.011 81.9755 109.778 93.1632 103.133 102.224C97.9448 109.297 89.7197 117.18 81.1274 123.309C74.1095 128.315 63.6774 134.454 53.8353 135.264C47.9971 135.744 43.2328 134.228 39.6784 130.755C34.9457 126.135 32.5711 120.066 32.5711 112.643L32.5698 112.643ZM118.443 59.8527C118.443 54.355 117.192 49.6642 114.347 46.4995C109.859 41.5054 103.903 39.2258 96.6469 39.724C79.751 40.8851 58.8182 57.0874 49.1136 71.4357C44.0124 78.9783 37.33 90.4473 34.4686 102.252C33.568 105.968 33.1184 109.431 33.1184 112.635C33.1184 119.914 35.438 125.852 40.0593 130.366C43.4954 133.721 48.114 135.186 53.7872 134.719C71.0309 133.3 93.2644 114.748 102.686 101.901C111.794 89.4811 118.442 72.5253 118.442 59.8541L118.443 59.8527Z" fill="#1AF012" stroke="#1AF012" stroke-width="0.5"/>
<path d="M20.956 115.854C20.956 111.004 21.7906 106.185 22.8782 101.966C26.5467 87.7362 34.6137 73.9382 40.9414 65.7712C49.3866 54.8703 60.7275 44.2179 71.2763 37.2778C78.011 32.8477 84.5353 29.7859 90.665 28.1803C97.7091 26.3344 104.265 26.4099 110.149 28.4053C117.12 30.7686 121.698 35.5966 123.76 42.755C124.974 46.9695 125.289 51.9458 124.699 57.5479C124.16 62.6545 122.886 68.1701 120.913 73.9382C117.305 84.485 111.455 95.3117 105.263 102.9C97.3722 112.571 87.4806 121.737 77.4115 128.709C66.2343 136.449 55.6345 140.957 46.759 141.745C39.8345 142.36 34.0445 140.718 29.551 136.866C23.0487 131.291 20.9546 123.533 20.9546 115.852L20.956 115.854ZM41.3759 66.1074C35.0826 74.2305 27.0582 87.953 23.4103 102.104C20.6398 112.855 19.5164 127.541 29.9099 136.452C34.2865 140.204 39.9377 141.801 46.7095 141.199C66.4075 139.449 90.6471 119.939 104.836 102.552C110.989 95.0125 116.804 84.2489 120.392 73.7598C123.296 65.2716 126.147 53.0272 123.23 42.9059C121.221 35.9315 116.761 31.2269 109.97 28.9241C99.1776 25.2639 85.9021 28.312 71.5775 37.7348C61.0753 44.6433 49.7853 55.2491 41.3745 66.106L41.3759 66.1074Z" fill="#1AF012" stroke="#1AF012" stroke-width="0.5"/>
<path d="M11.4272 121.239C11.4272 115.487 12.4516 109.137 14.4866 102.297C19.0735 86.8769 28.1842 71.4006 35.1788 62.0588C41.8034 53.2124 54.8521 39.2196 69.8257 28.8993C78.0068 23.2601 85.8346 19.3461 93.0932 17.2656C101.58 14.8323 109.282 14.9215 115.988 17.5304C124.818 20.9669 130.548 27.1605 133.017 35.9382C136.404 47.9767 132.933 62.2893 129.424 72.176C125.231 83.9949 118.601 96.3024 111.237 105.941C103.896 115.549 92.2132 126.75 80.7458 135.174C70.6066 142.623 55.5684 151.707 41.5064 152.687C33.1163 153.271 26.1272 150.867 20.7304 145.539C15.5068 140.382 12.4489 133.707 11.6445 125.697C11.5001 124.255 11.4272 122.767 11.4272 121.239ZM35.6201 62.3868C21.1635 81.692 -0.471883 123.834 21.1181 145.148C26.3967 150.359 33.2441 152.711 41.4693 152.139C65.8079 150.444 97.2291 123.371 110.802 105.609C118.133 96.0142 124.732 83.7616 128.907 71.9934C132.389 62.1809 135.837 47.9877 132.489 36.0864C130.069 27.483 124.45 21.4115 115.789 18.041C100.341 12.0299 82.4384 20.8722 70.1392 29.3494C55.2206 39.6313 42.2201 53.5719 35.6201 62.3868Z" fill="#1AF012" stroke="#1AF012" stroke-width="0.5"/>
<path d="M4.60229 129.29C4.60229 122.228 5.95253 114.316 8.63101 105.707C14.2354 87.6948 24.6194 70.0954 31.8078 60.4956C39.3812 50.3825 54.0881 35.2341 69.8729 24.1906C79.2531 17.6278 88.2963 12.9398 96.7511 10.2582C106.712 7.09756 115.858 6.73525 123.937 9.18083C134.174 12.2783 140.98 18.8479 144.169 28.7043C148.578 42.3376 145.06 58.8844 141.332 70.3657C136.663 84.7497 128.894 99.6565 120.019 111.265C113.548 119.729 101.104 132.863 85.5917 144.344C73.8686 153.019 56.4379 163.608 39.9683 164.79C29.869 165.514 21.3826 162.587 14.7428 156.09C8.80702 150.282 5.44241 142.559 4.74117 133.133C4.64767 131.883 4.60092 130.601 4.60092 129.29L4.60229 129.29ZM32.2491 60.8249C25.0868 70.3891 14.7415 87.9254 9.15763 105.871C4.3713 121.251 1.52232 142.381 15.1306 155.698C21.6521 162.079 29.9955 164.953 39.9312 164.241C56.2688 163.07 73.6018 152.534 85.2672 143.902C100.734 132.455 113.137 119.365 119.586 110.932C128.425 99.371 136.162 84.5232 140.814 70.1969C144.517 58.7924 148.013 42.365 143.649 28.8731C140.52 19.1979 133.834 12.749 123.781 9.70645C90.9803 -0.219988 47.9501 39.8604 32.2491 60.8249Z" fill="#1AF012" stroke="#1AF012" stroke-width="0.5"/>
<path d="M0.999796 138.641C0.999796 130.356 2.69103 120.944 6.04324 110.605C13.1286 88.7483 25.5722 68.8227 31.8091 60.4951C37.738 52.5778 53.1173 35.4326 73.1577 21.3863C83.6543 14.029 93.7921 8.71922 103.291 5.60254C114.541 1.91221 124.89 1.31934 134.052 3.84315C145.712 7.05452 153.537 14.1566 157.308 24.9545C162.609 40.1248 158.744 59.0431 154.569 72.2413C149.442 88.4478 140.903 105.399 131.141 118.749C127.486 123.747 122.315 129.713 116.58 135.548C109.943 142.301 102.611 148.827 95.3761 154.421C82.4773 164.394 63.1175 176.644 44.1469 178.372C31.6125 179.514 20.8381 175.915 12.1234 167.678C5.41212 161.334 1.69965 152.66 1.09054 141.899C1.03004 140.834 0.999796 139.747 0.999796 138.641ZM32.2491 60.8245C26.0328 69.1246 13.6291 88.9857 6.56575 110.774C0.80456 128.545 -2.84193 152.774 12.5015 167.279C21.0952 175.403 31.7252 178.952 44.096 177.824C62.936 176.109 82.1968 163.914 95.0392 153.986C111.429 141.315 124.491 126.909 130.697 118.423C140.425 105.119 148.935 88.2268 154.044 72.0739C158.194 58.9553 162.04 40.1619 156.788 25.1329C153.079 14.5162 145.38 7.53074 133.905 4.37014C112.832 -1.43366 89.41 10.6639 73.4726 21.8337C53.4885 35.8402 38.1574 52.9319 32.2477 60.8217L32.2491 60.8245Z" fill="#1AF012" stroke="#1AF012" stroke-width="0.5"/>
<path d="M1.97292 148.959L2.52291 148.956C2.58067 158.411 7.79873 175.634 21.9336 184.332C36.8591 193.516 57.7492 191.591 84.0225 178.609C112.897 164.342 138.135 139.453 155.086 108.527C170.436 80.5226 176.527 51.719 171.379 31.4778C168.561 20.3972 162.827 12.2535 154.338 7.2717C145.743 2.2282 135.829 1.3883 129.026 1.5722C121.639 1.7712 116.222 3.18475 116.167 3.19847L116.025 2.66736C116.08 2.65364 121.549 1.22499 128.994 1.02325C135.873 0.836604 145.901 1.68611 154.611 6.79686C163.234 11.8555 169.054 20.1145 171.91 31.3433C174.444 41.3068 174.275 53.709 171.422 67.2091C168.573 80.6845 163.091 95.0644 155.566 108.791C147.536 123.441 137.58 136.833 125.976 148.595C113.34 161.404 99.3068 171.668 84.2631 179.101C70.1255 186.086 57.3477 189.91 46.286 190.464C36.8137 190.939 28.5225 189.033 21.6421 184.799C15.0532 180.745 9.7031 174.442 6.17075 166.574C2.32079 157.999 1.98255 150.923 1.97018 148.959L1.97292 148.959Z" fill="#1AF012" stroke="#1AF012" stroke-width="0.5"/>
<path d="M6.33141 166.935L6.86079 166.787C11.225 182.371 22.5109 193.903 37.8241 198.429C52.1803 202.671 82.5785 204.233 124.874 167.022C156.561 139.143 171.231 110.804 177.957 91.9374C185.403 71.0539 187.339 49.8725 183.138 35.2745C178.92 20.6216 168.515 12.6206 160.529 8.48973C151.867 4.0089 144.115 2.9851 144.038 2.9755L144.106 2.43066C144.185 2.44027 152.035 3.47642 160.782 8.00253C165.923 10.6622 170.367 13.9889 173.992 17.8919C178.525 22.7735 181.78 28.5704 183.666 35.1236C187.898 49.8259 185.958 71.1335 178.476 92.1213C173.953 104.806 167.513 117.31 159.333 129.287C150.078 142.838 138.608 155.671 125.239 167.432C108.681 182 92.2763 192.002 76.4791 197.162C69.3017 199.506 62.2796 200.824 55.6068 201.076C49.2791 201.316 43.2443 200.603 37.6687 198.954C22.1699 194.373 10.7479 182.703 6.33141 166.934L6.33141 166.935Z" fill="#1AF012" stroke="#1AF012" stroke-width="0.5"/>
<path d="M79.4772 210.781C79.6106 210.78 92.9699 210.544 111.041 203.333C127.717 196.679 151.931 182.553 172.583 153.045C201.201 112.155 202.691 79.7407 198.903 59.7478C196.758 48.4312 192.733 39.8085 189.733 34.5673C186.483 28.8871 183.704 25.8445 183.675 25.8143L184.079 25.4424C184.107 25.4726 186.917 28.5453 190.195 34.2682C193.217 39.5436 197.272 48.2212 199.437 59.6106C201.867 72.408 201.462 85.948 198.232 99.857C194.198 117.231 185.72 135.23 173.034 153.357C163.878 166.438 153.264 177.627 141.489 186.611C132.066 193.799 121.883 199.599 111.22 203.851C93.0593 211.093 79.6161 211.326 79.4827 211.327L79.4772 210.778L79.4772 210.781Z" fill="#1AF012" stroke="#1AF012" stroke-width="0.5"/>
<path d="M154.765 5.90908L154.953 5.39307C168.687 10.4023 177.735 18.6242 177.825 18.7065L177.452 19.11C177.363 19.0277 168.39 10.8785 154.763 5.90908L154.765 5.90908Z" fill="#1AF012" stroke="#1AF012" stroke-width="0.5"/>
</svg>
